<svg width="87" height="89" viewBox="0 0 87 89" fill="none" xmlns="http://www.w3.org/2000/svg">
<path fill-rule="evenodd" clip-rule="evenodd" d="M1.50185 34.0545C2.5334 19.9793 10.5397 7.52017 23.9375 2.97464C37.9469 -1.77836 52.9632 2.2006 62.7401 13.2779C77.0961 29.5435 93.7409 50.5577 82.0609 68.8294C69.0663 89.1575 40.2448 92.7503 18.0598 83.1737C0.485506 75.5874 0.105973 53.1007 1.50185 34.0545Z" stroke="#E84654" stroke-width="1.5"/>
<g clip-path="url(#clip0_1_140)">
<mask id="mask0_1_140" style="mask-type:luminance" maskUnits="userSpaceOnUse" x="18" y="19" width="51" height="51">
<path d="M68.6729 19.8894H18.6729V69.8894H68.6729V19.8894Z" fill="white"/>
</mask>
<g mask="url(#mask0_1_140)">
<mask id="mask1_1_140" style="mask-type:luminance" maskUnits="userSpaceOnUse" x="18" y="19" width="51" height="51">
<path d="M18.6729 19.8894H68.6728V69.8894H18.6729V19.8894Z" fill="white"/>
</mask>
<g mask="url(#mask1_1_140)">
<path d="M62.2825 50.3431L59.6228 54.0857C59.5396 54.2026 59.3661 54.2026 59.2829 54.0857L56.6231 50.3431C56.5251 50.205 56.6238 50.0139 56.793 50.0139H62.1127C62.2819 50.0139 62.3806 50.205 62.2825 50.3431Z" stroke="#E84654" stroke-width="1.7" stroke-miterlimit="10" stroke-linecap="round" stroke-linejoin="round"/>
<path d="M59.4531 50.014V43.4254" stroke="#E84654" stroke-width="1.7" stroke-miterlimit="10" stroke-linecap="round" stroke-linejoin="round"/>
<path d="M40.725 30.2214C33.4392 30.2214 27.2438 34.8886 24.9646 41.3961C24.3746 43.081 25.619 44.8699 27.404 44.8893C27.4167 44.8894 27.4294 44.8895 27.442 44.8895H35.4019C35.7631 44.8895 36.102 44.6989 36.2756 44.3821C37.1368 42.8101 38.806 41.7439 40.725 41.7439C42.6439 41.7439 44.3132 42.8101 45.1744 44.3821C45.3479 44.6989 45.6869 44.8895 46.048 44.8895H51.9188C52.3096 44.1368 52.82 43.4302 53.4515 42.7986C54.2934 41.9568 55.2684 41.3304 56.3085 40.9168C53.8982 34.6608 47.8304 30.2214 40.725 30.2214Z" stroke="#E84654" stroke-width="2" stroke-miterlimit="10" stroke-linecap="round" stroke-linejoin="round"/>
<path d="M40.7597 44.9755C39.8525 44.9755 39.1104 45.7178 39.1104 46.6249C39.1104 47.532 39.8525 48.2742 40.7597 48.2742C41.6669 48.2742 42.4091 47.532 42.4091 46.6249C42.4091 45.7178 41.6669 44.9755 40.7597 44.9755Z" stroke="#E84654" stroke-width="2" stroke-miterlimit="10" stroke-linecap="round" stroke-linejoin="round"/>
<path d="M40.7596 39.1411C37.1363 39.1411 34.0827 41.5711 33.1338 44.8895H35.4021C35.7633 44.8895 36.1022 44.6989 36.2758 44.3821C37.137 42.8102 38.8062 41.744 40.7252 41.744C42.6441 41.744 44.3134 42.8102 45.1746 44.3821C45.3481 44.6989 45.6871 44.8895 46.0482 44.8895H48.3853C47.4363 41.5711 44.3828 39.1411 40.7596 39.1411Z" stroke="#E84654" stroke-width="2" stroke-miterlimit="10" stroke-linecap="round" stroke-linejoin="round"/>
<path d="M45.6623 33.033L42.531 41.0754" stroke="#E84654" stroke-width="2.2" stroke-miterlimit="10" stroke-linecap="round" stroke-linejoin="round"/>
<path d="M42.1765 66H56.7338C59.0803 66 61 64.0803 61 61.7337V57.0297C58.1828 57.9306 54.9735 57.2656 52.7379 55.03C49.5511 51.8432 49.5511 46.6764 52.7379 43.4895C54.9735 41.254 58.1828 40.5889 61 41.4899V29.2663C61 26.9198 59.0803 25 56.7338 25H24.2663C21.9198 25 20 26.9198 20 29.2663V61.7337C20 64.0803 21.9198 66 24.2663 66H38.8897" stroke="#E84654" stroke-width="2.2" stroke-miterlimit="10" stroke-linecap="round" stroke-linejoin="round"/>
<path d="M66 47.3889C65.6935 45.9065 64.9608 44.4932 63.7989 43.3431C60.6421 40.219 55.5242 40.219 52.3674 43.3431C49.2109 46.4673 49.2109 51.5327 52.3674 54.6569C55.5242 57.781 60.6421 57.781 63.7989 54.6569C64.9608 53.5068 65.6935 52.0935 66 50.6111" stroke="#E84654" stroke-width="2" stroke-miterlimit="10" stroke-linecap="round" stroke-linejoin="round"/>
</g>
</g>
</g>
<defs>
<clipPath id="clip0_1_140">
<rect width="50" height="50" fill="white" transform="translate(18.6729 19.8894)"/>
</clipPath>
</defs>
</svg>
