<svg width="87" height="90" viewBox="0 0 87 90" fill="none" xmlns="http://www.w3.org/2000/svg">
<path fill-rule="evenodd" clip-rule="evenodd" d="M1.50185 34.5281C2.5334 20.4529 10.5397 7.9938 23.9375 3.44827C37.9469 -1.30473 52.9632 2.67424 62.7401 13.7516C77.0961 30.0172 93.7409 51.0313 82.0609 69.303C69.0663 89.6312 40.2448 93.2239 18.0598 83.6473C0.485506 76.061 0.105973 53.5743 1.50185 34.5281Z" stroke="#E84654" stroke-width="1.5"/>
<g clip-path="url(#clip0_1_202)">
<path d="M31.2764 33.0148C30.7373 33.0148 30.2998 33.4523 30.2998 33.9913C30.2998 34.5304 30.7373 34.9679 31.2764 34.9679C31.8154 34.9679 32.2529 34.5304 32.2529 33.9913C32.2529 33.4523 31.8154 33.0148 31.2764 33.0148Z" fill="#E84654"/>
<path d="M40.0649 51.2754H37.1354V48.3459C37.1354 47.8067 36.6981 47.3694 36.1589 47.3694C35.6196 47.3694 35.1824 47.8067 35.1824 48.3459V51.2754H32.2529C31.7137 51.2754 31.2764 51.7127 31.2764 52.2519C31.2764 52.7911 31.7137 53.2285 32.2529 53.2285H35.1824V56.158C35.1824 56.6972 35.6197 57.1345 36.1589 57.1345C36.698 57.1345 37.1354 56.6972 37.1354 56.158V53.2285H40.0649C40.6042 53.2285 41.0415 52.7912 41.0415 52.2519C41.0415 51.7126 40.6043 51.2754 40.0649 51.2754Z" fill="#E84654"/>
<path d="M50.7439 67.9697L50.6939 67.8831L55.9078 64.8728L50.1487 54.898L44.9348 57.9084C42.1976 59.4894 41.2284 62.9932 42.8277 65.7766L50.7439 67.9697ZM50.7439 67.9697L50.6939 67.8831C47.9393 69.4738 44.4195 68.5331 42.8278 65.7767L50.7439 67.9697ZM28.2293 34.637L23.1516 41.407C22.8726 41.7795 22.6909 42.2206 22.6205 42.6798H49.6929C49.6224 42.2207 49.4408 41.7796 49.1616 41.4068L28.2293 34.637ZM28.2293 34.637C28.2293 34.637 28.2293 34.637 28.2293 34.637C28.369 34.4507 28.4446 34.224 28.4446 33.991V31.1615H43.8688V32.9146H35.1802C34.5857 32.9146 34.1037 33.3966 34.1037 33.9911C34.1037 34.5856 34.5857 35.0677 35.1802 35.0677H44.4071L49.1615 41.4067L28.2293 34.637ZM55.6976 49.2083L51.881 51.4118V43.1049C51.881 42.0349 51.5273 40.9735 50.8846 40.1154L50.8845 40.1154L46.022 33.6322V30.9632C47.1623 30.5282 47.975 29.4238 47.975 28.1318V23.6399C47.9748 21.9694 46.6159 20.6104 44.9454 20.6104H27.3681C25.6976 20.6104 24.3385 21.9694 24.3385 23.6399V28.1319C24.3385 29.4237 25.1513 30.5283 26.2916 30.9633V33.6323L21.4286 40.1159L21.4286 40.1159C20.7862 40.9736 20.4325 42.0349 20.4325 43.1049V62.017C20.4325 64.7645 22.6676 66.9995 25.415 66.9995H41.052C43.2822 70.6788 48.0385 71.9025 51.7703 69.7477L63.6097 62.9121C67.3637 60.7443 68.7029 55.9117 66.5055 52.1042L66.4189 52.1542L66.5055 52.1042C64.3192 48.3175 59.485 47.0215 55.6976 49.2083ZM25.5151 64.8466V64.8465H25.4151C23.855 64.8465 22.5856 63.5771 22.5856 62.017V61.1308H40.1009C39.8265 62.3357 39.8296 63.6134 40.1444 64.8466H25.5151ZM43.8581 56.044L43.9081 56.1306L43.858 56.044C42.6254 56.756 41.6255 57.7657 40.9346 58.9874H22.5855V44.8326H49.7279V52.6547L43.8581 56.044ZM26.4916 23.6399C26.4916 23.1567 26.8849 22.7634 27.368 22.7634H44.9453C45.4285 22.7634 45.8218 23.1567 45.8218 23.6399V28.1319C45.8218 28.6152 45.4285 29.0084 44.9453 29.0084H27.3681C26.8849 29.0084 26.4917 28.6151 26.4917 28.1319L26.4916 23.6399ZM62.5331 61.0476L57.7724 63.7963L52.0132 53.8214L56.7741 51.0729C59.5305 49.4816 63.0492 50.4239 64.6409 53.1806C66.2395 55.9509 65.2674 59.4686 62.5331 61.0476Z" fill="#E84654" stroke="#E84654" stroke-width="0.2"/>
</g>
<defs>
<clipPath id="clip0_1_202">
<rect width="50" height="50" fill="white" transform="translate(19 20.7104)"/>
</clipPath>
</defs>
</svg>
