<svg width="186" height="185" viewBox="0 0 186 185" fill="none" xmlns="http://www.w3.org/2000/svg">
<path fill-rule="evenodd" clip-rule="evenodd" d="M118.612 31.1541C100.475 19.412 77.85 17.6982 59.8921 29.8937C41.1146 42.646 32.0638 64.6982 36.5312 86.8971C43.0908 119.493 53.3274 159.278 86.4503 161.866C123.301 164.746 154.381 132.796 163.238 96.7994C170.255 68.284 143.156 47.0434 118.612 31.1541Z" fill="white"/>
<path d="M111.686 71.4245C111.403 71.4277 111.128 71.3283 110.912 71.1448C110.696 70.9613 110.554 70.7059 110.511 70.4257C109.74 65.3932 110.614 60.2463 113.002 55.75H78.5394C80.4444 59.3675 81.391 63.4127 81.2889 67.5C81.2889 67.8116 81.1651 68.1105 80.9447 68.3308C80.7244 68.5512 80.4255 68.675 80.1139 68.675C79.8022 68.675 79.5034 68.5512 79.283 68.3308C79.0627 68.1105 78.9389 67.8116 78.9389 67.5C79.035 63.1442 77.8546 58.8555 75.5431 55.1625C75.4403 54.9844 75.386 54.7824 75.3857 54.5767C75.3854 54.3711 75.439 54.1689 75.5413 53.9905C75.6436 53.8121 75.791 53.6637 75.9686 53.56C76.1462 53.4564 76.348 53.4012 76.5536 53.4H114.964C115.171 53.3992 115.375 53.4531 115.554 53.5562C115.734 53.6594 115.883 53.8082 115.987 53.9875C116.09 54.1661 116.144 54.3687 116.144 54.575C116.144 54.7812 116.09 54.9838 115.987 55.1625C113.199 59.6006 112.086 64.888 112.849 70.0732C112.873 70.226 112.866 70.3819 112.829 70.5319C112.792 70.682 112.725 70.8233 112.634 70.9477C112.542 71.0722 112.427 71.1773 112.294 71.2571C112.162 71.3369 112.015 71.3897 111.862 71.4127L111.686 71.4245Z" fill="#C14CB2"/>
<path d="M114.964 128.6H98.2558C97.9724 128.603 97.6974 128.504 97.4815 128.32C97.2656 128.137 97.1233 127.881 97.0808 127.601C96.4717 122.839 96.7064 118.006 97.774 113.325C96.4674 113.589 95.121 113.589 93.8143 113.325C94.8679 118.008 95.1024 122.838 94.5075 127.601C94.4651 127.881 94.3227 128.137 94.1068 128.32C93.8909 128.504 93.6159 128.603 93.3326 128.6H76.5536C76.3485 128.599 76.1474 128.544 75.9701 128.441C75.7928 128.338 75.6456 128.19 75.5431 128.012C63.5346 107.144 69.2333 94.3252 74.2506 83.0217C74.7206 81.9524 75.1906 80.8949 75.6371 79.8492C75.6931 79.7013 75.7784 79.5663 75.8879 79.4522C75.9973 79.338 76.1287 79.2472 76.2741 79.1851C76.4196 79.1229 76.576 79.0908 76.7341 79.0905C76.8923 79.0903 77.0488 79.122 77.1944 79.1837C77.34 79.2455 77.4717 79.3359 77.5814 79.4497C77.6912 79.5635 77.7769 79.6983 77.8334 79.846C77.8899 79.9938 77.9159 80.1513 77.91 80.3094C77.9041 80.4674 77.8664 80.6226 77.7991 80.7657C77.3526 81.8232 76.8826 82.8924 76.4008 83.9734C71.4188 95.1829 66.2723 106.768 77.2468 126.273H92.3221C92.7173 121.429 92.3003 116.552 91.0883 111.844C91.0374 111.63 91.0477 111.406 91.1181 111.197C91.1885 110.989 91.3161 110.804 91.4864 110.664C91.6566 110.525 91.8627 110.436 92.0811 110.407C92.2995 110.379 92.5214 110.413 92.7215 110.505C93.6879 110.946 94.7378 111.174 95.8 111.174C96.8623 111.174 97.9122 110.946 98.8785 110.505C99.0804 110.412 99.3046 110.378 99.5251 110.407C99.7456 110.436 99.9533 110.527 100.124 110.669C100.292 110.81 100.417 110.994 100.485 111.202C100.554 111.409 100.563 111.632 100.512 111.844C99.2681 116.538 98.8623 121.415 99.3133 126.25H114.283C125.304 106.757 119.958 94.7129 115.658 85.0192C115.53 84.734 115.52 84.4098 115.632 84.1179C115.743 83.8259 115.966 83.5901 116.251 83.4623C116.536 83.3345 116.86 83.3253 117.152 83.4366C117.444 83.5478 117.68 83.7705 117.808 84.0557C122.12 93.7964 128.042 107.144 115.987 128.012C115.883 128.192 115.734 128.34 115.554 128.444C115.375 128.547 115.171 128.601 114.964 128.6Z" fill="#C14CB2"/>
<path d="M95.7883 113.525C94.3854 113.528 92.9983 113.228 91.7228 112.643C91.5218 112.552 91.3507 112.405 91.2293 112.22C86.588 105.17 79.4793 100.306 70.1968 97.7209C69.9115 97.6408 69.667 97.4559 69.5123 97.2031C69.3576 96.9503 69.3041 96.6485 69.3626 96.3579C69.7842 94.3282 70.3697 92.3359 71.1133 90.4007C71.2218 90.1183 71.435 89.8886 71.7086 89.7595C71.9822 89.6303 72.2951 89.6117 72.5821 89.7075C87.6184 94.7715 103.899 94.7715 118.936 89.7075C119.224 89.6082 119.54 89.625 119.816 89.7544C120.093 89.8838 120.308 90.1156 120.416 90.4007C121.161 92.3376 121.754 94.3293 122.191 96.3579C122.252 96.6518 122.198 96.958 122.041 97.2136C121.884 97.4692 121.634 97.655 121.345 97.7327C111.945 100.306 104.895 105.182 100.324 112.22C100.197 112.4 100.028 112.546 99.8303 112.643C98.5616 113.223 97.1832 113.524 95.7883 113.525ZM92.9918 110.634C94.7809 111.362 96.7839 111.362 98.573 110.634C103.273 103.584 110.323 98.5434 119.723 95.7704C119.453 94.5954 119.1 93.491 118.689 92.2455C103.832 96.9985 87.8622 96.9985 73.0051 92.2455C72.5821 93.4205 72.2413 94.5954 71.9593 95.7704C81.1478 98.5434 88.2448 103.537 93.0153 110.634H92.9918Z" fill="#C14CB2"/>
<path d="M119.617 85.7124H98.6083C82.7693 85.7124 70.8196 81.0124 70.8196 74.7261V60.4499C70.8196 60.1383 70.9434 59.8394 71.1637 59.6191C71.3841 59.3987 71.6829 59.2749 71.9946 59.2749C72.3062 59.2749 72.6051 59.3987 72.8254 59.6191C73.0458 59.8394 73.1696 60.1383 73.1696 60.4499C73.1696 64.5389 83.6153 69.0862 98.6083 69.0862H119.617C119.929 69.0862 120.228 69.2099 120.448 69.4303C120.668 69.6507 120.792 69.9495 120.792 70.2612V84.5374C120.792 84.849 120.668 85.1479 120.448 85.3682C120.228 85.5886 119.929 85.7124 119.617 85.7124ZM73.1696 65.0089V74.7261C73.1696 78.8034 83.6153 83.3624 98.6083 83.3624H118.442V71.4127H98.6083C86.9523 71.4127 77.3996 68.8629 73.1696 65.0089Z" fill="#C14CB2"/>
<path d="M110.499 85.7124C110.188 85.7124 109.889 85.5886 109.668 85.3683C109.448 85.1479 109.324 84.8491 109.324 84.5374V78.5449C109.324 78.2333 109.448 77.9344 109.668 77.7141C109.889 77.4937 110.188 77.3699 110.499 77.3699C110.811 77.3699 111.11 77.4937 111.33 77.7141C111.55 77.9344 111.674 78.2333 111.674 78.5449V84.5374C111.674 84.8491 111.55 85.1479 111.33 85.3683C111.11 85.5886 110.811 85.7124 110.499 85.7124Z" fill="#C14CB2"/>
<path d="M103.156 85.7124C102.844 85.7124 102.545 85.5886 102.325 85.3682C102.104 85.1479 101.981 84.849 101.981 84.5374V77.8869C101.981 77.5753 102.104 77.2764 102.325 77.056C102.545 76.8357 102.844 76.7119 103.156 76.7119C103.467 76.7119 103.766 76.8357 103.986 77.056C104.207 77.2764 104.331 77.5753 104.331 77.8869V84.5374C104.331 84.849 104.207 85.1479 103.986 85.3682C103.766 85.5886 103.467 85.7124 103.156 85.7124Z" fill="#C14CB2"/>
<path d="M95.7883 85.6654C95.4767 85.6654 95.1778 85.5416 94.9575 85.3213C94.7371 85.1009 94.6133 84.802 94.6133 84.4904V77.2289C94.6133 76.9173 94.7371 76.6184 94.9575 76.3981C95.1778 76.1777 95.4767 76.0539 95.7883 76.0539C96.1 76.0539 96.3988 76.1777 96.6192 76.3981C96.8395 76.6184 96.9633 76.9173 96.9633 77.2289V84.4904C96.9633 84.802 96.8395 85.1009 96.6192 85.3213C96.3988 85.5416 96.1 85.6654 95.7883 85.6654Z" fill="#C14CB2"/>
<path d="M88.4563 84.9721C88.1447 84.9721 87.8458 84.8483 87.6255 84.628C87.4051 84.4076 87.2813 84.1087 87.2813 83.7971V76.5709C87.2813 76.2592 87.4051 75.9604 87.6255 75.74C87.8458 75.5197 88.1447 75.3959 88.4563 75.3959C88.7679 75.3959 89.0668 75.5197 89.2872 75.74C89.5075 75.9604 89.6313 76.2592 89.6313 76.5709V83.7971C89.6313 84.1087 89.5075 84.4076 89.2872 84.628C89.0668 84.8483 88.7679 84.9721 88.4563 84.9721Z" fill="#C14CB2"/>
<path d="M81.1126 83.292C80.801 83.292 80.5021 83.1682 80.2818 82.9478C80.0614 82.7275 79.9376 82.4286 79.9376 82.117V75.9247C79.9376 75.6131 80.0614 75.3142 80.2818 75.0939C80.5021 74.8735 80.801 74.7497 81.1126 74.7497C81.4242 74.7497 81.7231 74.8735 81.9435 75.0939C82.1638 75.3142 82.2876 75.6131 82.2876 75.9247V82.117C82.2876 82.4286 82.1638 82.7275 81.9435 82.9478C81.7231 83.1682 81.4242 83.292 81.1126 83.292Z" fill="#C14CB2"/>
</svg>
