<svg width="152" height="155" viewBox="0 0 152 155" fill="none" xmlns="http://www.w3.org/2000/svg">
<path fill-rule="evenodd" clip-rule="evenodd" d="M15.3969 49.951C20.7475 29.0173 36.1998 12.4028 57.6654 9.17081C80.1107 5.7913 101.725 15.8435 113.511 35.1784C130.817 63.569 150.302 99.7344 127.733 124.117C102.625 151.243 58.1146 148.874 27.1785 128.449C2.67173 112.27 8.15667 78.2781 15.3969 49.951Z" fill="white"/>
<path d="M97.8019 95.651L90.5144 102.938L87.752 100.175C87.5201 99.9514 87.2096 99.8275 86.8873 99.8303C86.565 99.8331 86.2568 99.9624 86.0288 100.19C85.8009 100.418 85.6717 100.726 85.6689 101.049C85.6661 101.371 85.79 101.682 86.0139 101.913L89.6457 105.545C89.8762 105.776 90.1888 105.905 90.5148 105.905C90.8407 105.905 91.1533 105.776 91.3838 105.545L99.5399 97.3891C99.7639 97.1573 99.8878 96.8468 99.885 96.5245C99.8821 96.2022 99.7529 95.8939 99.525 95.666C99.2971 95.4381 98.9888 95.3088 98.6665 95.306C98.3442 95.3032 98.0337 95.4271 97.8019 95.651Z" fill="#C14CB2"/>
<path d="M101.621 89.1741C101.961 87.8447 102.164 86.4842 102.229 85.1137V53.393C102.229 53.067 102.099 52.7544 101.869 52.5239C101.638 52.2934 101.325 52.1638 100.999 52.1638C90.3382 52.1638 87.5184 43.8111 87.4045 43.4587C87.3258 43.2096 87.1697 42.9921 86.959 42.8376C86.7483 42.6832 86.4939 42.5999 86.2327 42.5999H51.9955C51.7349 42.6001 51.4812 42.683 51.2708 42.8368C51.0605 42.9906 50.9045 43.2072 50.8253 43.4554C50.7097 43.8111 47.8924 52.1638 37.2287 52.1638C36.9027 52.1638 36.5901 52.2934 36.3595 52.5239C36.129 52.7544 35.9995 53.067 35.9995 53.393V85.1227C36.0069 86.0487 36.5486 107.929 68.7035 119.33C68.9686 119.423 69.2579 119.423 69.523 119.33C74.6754 117.549 79.5923 115.149 84.1651 112.181C85.8098 113.408 87.6982 114.268 89.7031 114.703C89.9416 114.76 90.189 114.808 90.4103 114.842C91.1925 114.976 91.9849 115.043 92.7785 115.041C95.7921 115.042 98.7306 114.101 101.182 112.349C103.634 110.597 105.477 108.122 106.452 105.27C107.426 102.419 107.485 99.3336 106.619 96.4472C105.753 93.5609 104.005 91.0178 101.621 89.1741ZM69.1141 116.866C39.0733 106.036 38.4661 85.9536 38.4579 85.1137V54.5878C41.5042 54.5038 44.4657 53.566 47.0052 51.8812C49.5446 50.1964 51.5599 47.8324 52.8215 45.0583H85.4066C86.6683 47.8324 88.6835 50.1964 91.2229 51.8812C93.7624 53.566 96.7239 54.5038 99.7702 54.5878V85.0973C99.7264 85.9915 99.6091 86.8806 99.4195 87.7556C99.3662 87.7278 99.3088 87.7065 99.2556 87.6794C99.0097 87.5532 98.7533 87.4336 98.4968 87.3271C98.3771 87.2754 98.2599 87.2189 98.1386 87.1705C97.7617 87.0198 97.3798 86.8813 96.9914 86.7608C96.9668 86.7534 96.9422 86.7477 96.9168 86.742C95.5525 86.3401 94.1369 86.1394 92.7146 86.1462C92.5819 86.1462 92.4606 86.1462 92.3942 86.1552C91.7351 86.1723 91.0779 86.2353 90.4275 86.3437C90.139 86.3912 89.8525 86.4475 89.5679 86.5125C87.6337 86.954 85.8118 87.791 84.2168 88.9709C84.1588 86.3654 83.0839 83.886 81.2218 82.0627C79.3597 80.2393 76.8582 79.2167 74.2521 79.2135H73.6621C73.3361 79.2135 73.0234 79.343 72.7929 79.5736C72.5624 79.8041 72.4329 80.1167 72.4329 80.4427C72.4329 81.3871 72.0578 82.2927 71.39 82.9604C70.7223 83.6282 69.8166 84.0033 68.8723 84.0033C67.928 84.0033 67.0223 83.6282 66.3546 82.9604C65.6869 82.2927 65.3117 81.3871 65.3117 80.4427C65.3117 80.1167 65.1822 79.8041 64.9517 79.5736C64.7212 79.343 64.4086 79.2135 64.0825 79.2135H63.4925C60.8496 79.2177 58.3162 80.27 56.4481 82.1396C54.58 84.0092 53.5298 86.5435 53.5278 89.1864V94.2015C53.5278 94.5275 53.6574 94.8402 53.8879 95.0707C54.1184 95.3012 54.431 95.4307 54.757 95.4307H79.3008C79.1352 95.8499 78.9916 96.2774 78.8706 96.7116C78.514 97.9747 78.3331 99.2809 78.333 100.593C78.333 100.889 78.342 101.183 78.3674 101.462C78.3674 101.532 78.3773 101.599 78.3871 101.674C78.4361 102.385 78.5374 103.09 78.6903 103.786C78.8515 104.509 79.0727 105.217 79.3516 105.903C79.5212 106.335 79.7048 106.741 79.8884 107.1C80.367 108.052 80.9499 108.949 81.6264 109.772C81.8346 110.023 82.0362 110.251 82.2378 110.463C82.2476 110.473 82.2574 110.486 82.2673 110.496C78.1355 113.106 73.7234 115.243 69.1141 116.866ZM81.7666 91.2802C81.3105 91.8136 80.8934 92.3791 80.5185 92.9723H55.9862V89.1864C55.9878 87.2834 56.7107 85.4517 58.0092 84.0604C59.3077 82.6692 61.0852 81.8218 62.9836 81.6891C63.2689 83.0397 64.0096 84.2512 65.0818 85.1206C66.154 85.99 67.4924 86.4645 68.8727 86.4645C70.2531 86.4645 71.5915 85.99 72.6637 85.1206C73.7358 84.2512 74.4766 83.0397 74.7618 81.6891C76.6613 81.8206 78.4404 82.6674 79.7403 84.0587C81.0402 85.45 81.7643 87.2824 81.7666 89.1864V91.2802ZM92.7802 112.586C92.1211 112.589 91.463 112.534 90.8135 112.422C90.6348 112.395 90.4562 112.361 90.2538 112.312C88.3255 111.897 86.53 111.01 85.028 109.732C84.8355 109.568 84.6495 109.397 84.4593 109.215C84.1244 108.898 83.8092 108.561 83.5153 108.205C82.9576 107.523 82.477 106.781 82.0821 105.993C81.9297 105.695 81.7805 105.363 81.6346 104.992C81.4055 104.432 81.224 103.853 81.0922 103.262C80.9623 102.675 80.8776 102.079 80.8389 101.48C80.8389 101.449 80.8291 101.423 80.825 101.392C80.8252 101.352 80.8233 101.312 80.8193 101.273C80.798 101.057 80.7922 100.827 80.7922 100.597C80.7926 99.5062 80.9437 98.4203 81.2413 97.3704C81.3899 96.8255 81.5817 96.2934 81.8149 95.779L81.8969 95.5938C81.9387 95.4955 81.9837 95.3996 82.028 95.3078L82.064 95.2316C82.7619 93.8531 83.7168 92.6207 84.8773 91.6006C85.0551 91.4367 85.2403 91.2883 85.4304 91.1359C85.4566 91.119 85.482 91.101 85.5066 91.0818C87.0644 89.8843 88.8943 89.0908 90.8331 88.7718C91.3953 88.6799 91.9632 88.6268 92.5327 88.6128C92.5983 88.6079 92.6573 88.6128 92.7859 88.6128C93.9675 88.6116 95.1429 88.7842 96.2744 89.125C96.2957 89.1315 96.317 89.1381 96.3399 89.143C97.4797 89.4958 98.5589 90.0209 99.5399 90.7C101.654 92.1447 103.25 94.2284 104.093 96.6458C104.937 99.0632 104.985 101.687 104.229 104.134C103.473 106.58 101.954 108.72 99.8937 110.24C97.8335 111.761 95.3406 112.581 92.7802 112.582V112.586Z" fill="#C14CB2"/>
<path d="M68.5069 78.1548C70.3122 78.1546 72.0769 77.6192 73.5779 76.6161C75.0789 75.613 76.2487 74.1873 76.9395 72.5194C77.6302 70.8514 77.8109 69.0161 77.4586 67.2455C77.1063 65.4749 76.2369 63.8485 74.9603 62.572C73.6836 61.2955 72.0572 60.4262 70.2865 60.0741C68.5159 59.722 66.6806 59.9028 65.0127 60.5937C63.3449 61.2846 61.9193 62.4545 60.9163 63.9556C59.9134 65.4567 59.3781 67.2215 59.3781 69.0268C59.3807 71.447 60.3433 73.7674 62.0547 75.4787C63.7662 77.19 66.0866 78.1524 68.5069 78.1548ZM68.5069 62.3572C69.826 62.3573 71.1154 62.7486 72.2121 63.4816C73.3088 64.2146 74.1635 65.2563 74.6682 66.475C75.1729 67.6937 75.3049 69.0347 75.0474 70.3285C74.79 71.6222 74.1547 72.8105 73.2219 73.7432C72.2891 74.6759 71.1007 75.311 69.8069 75.5683C68.5132 75.8256 67.1722 75.6935 65.9535 75.1886C64.7349 74.6838 63.6933 73.8289 62.9604 72.7321C62.2276 71.6353 61.8364 70.3459 61.8364 69.0268C61.8384 67.2584 62.5418 65.5629 63.7924 64.3125C65.0429 63.0621 66.7384 62.3589 68.5069 62.3572Z" fill="#C14CB2"/>
</svg>
