<svg width="186" height="185" viewBox="0 0 186 185" fill="none" xmlns="http://www.w3.org/2000/svg">
<path fill-rule="evenodd" clip-rule="evenodd" d="M66.9976 31.1541C85.1352 19.412 107.76 17.6982 125.718 29.8937C144.495 42.6459 153.546 64.6982 149.079 86.8971C142.519 119.493 132.283 159.278 99.1595 161.866C62.3086 164.746 31.2286 132.796 22.3716 96.7994C15.3553 68.284 42.4542 47.0434 66.9976 31.1541Z" fill="white"/>
<path d="M77.0564 98.1738H53.7875C52.9493 98.1738 52.2717 97.4947 52.2717 96.658C52.2717 95.8213 52.9493 95.1422 53.7875 95.1422H77.0564C77.8946 95.1422 78.5722 95.8213 78.5722 96.658C78.5722 97.4947 77.8931 98.1738 77.0564 98.1738Z" fill="#C14CB2"/>
<path d="M77.0564 79.9843H53.7875C52.9493 79.9843 52.2717 79.3052 52.2717 78.4685C52.2717 77.6318 52.9493 76.9527 53.7875 76.9527H77.0564C77.8946 76.9527 78.5722 77.6318 78.5722 78.4685C78.5722 79.3052 77.8931 79.9843 77.0564 79.9843Z" fill="#C14CB2"/>
<path d="M75.0086 89.079H44.6928C43.8546 89.079 43.177 88.4 43.177 87.5632C43.177 86.7265 43.8546 86.0475 44.6928 86.0475H75.0086C75.8468 86.0475 76.5244 86.7265 76.5244 87.5632C76.5244 88.4 75.8468 89.079 75.0086 89.079Z" fill="#C14CB2"/>
<path d="M90.1664 93.4779C87.1546 93.4779 84.1033 91.4467 84.1033 87.5632C84.1033 83.6798 87.1546 81.6486 90.1664 81.6486C93.1783 81.6486 96.2296 83.6798 96.2296 87.5632C96.2296 91.4467 93.1783 93.4779 90.1664 93.4779ZM90.1664 84.6802C88.7674 84.6802 87.1349 85.4351 87.1349 87.5632C87.1349 89.6914 88.7674 90.4463 90.1664 90.4463C91.5655 90.4463 93.198 89.6914 93.198 87.5632C93.198 85.4351 91.5655 84.6802 90.1664 84.6802Z" fill="#C14CB2"/>
<path d="M93.3815 85.8641C92.9935 85.8641 92.6054 85.7155 92.3099 85.4199C91.7172 84.8273 91.7172 83.8693 92.3099 83.2766L100.885 74.7018C101.477 74.1091 102.435 74.1091 103.028 74.7018C103.621 75.2945 103.621 76.2524 103.028 76.8451L94.4532 85.4199C94.1576 85.7155 93.7696 85.8641 93.3815 85.8641Z" fill="#C14CB2"/>
<path d="M84.8082 94.4389C84.4201 94.4389 84.0321 94.2903 83.7365 93.9947C83.1438 93.4036 83.1438 92.4441 83.7365 91.8514L85.8798 89.7066C86.4725 89.1139 87.4305 89.1139 88.0231 89.7066C88.6158 90.2977 88.6158 91.2572 88.0231 91.8499L85.8798 93.9947C85.5842 94.2903 85.1962 94.4389 84.8082 94.4389Z" fill="#C14CB2"/>
<path d="M90.1664 116.363C89.3282 116.363 88.6506 115.684 88.6506 114.847V110.3C88.6506 109.463 89.3282 108.784 90.1664 108.784C91.0047 108.784 91.6822 109.463 91.6822 110.3V114.847C91.6822 115.684 91.0047 116.363 90.1664 116.363Z" fill="#C14CB2"/>
<path d="M109.459 108.372C109.071 108.372 108.683 108.223 108.388 107.928L105.173 104.711C104.58 104.119 104.58 103.159 105.173 102.568C105.765 101.975 106.723 101.975 107.316 102.568L110.531 105.785C111.124 106.377 111.124 107.337 110.531 107.928C110.234 108.223 109.846 108.372 109.459 108.372Z" fill="#C14CB2"/>
<path d="M106.243 73.0026C105.855 73.0026 105.467 72.854 105.171 72.5584C104.579 71.9673 104.579 71.0078 105.171 70.4151L108.386 67.1986C108.979 66.6059 109.937 66.6059 110.53 67.1986C111.122 67.7898 111.122 68.7493 110.53 69.3419L107.315 72.5584C107.019 72.854 106.631 73.0026 106.243 73.0026Z" fill="#C14CB2"/>
<path d="M90.1664 66.3422C89.3282 66.3422 88.6506 65.6631 88.6506 64.8264V60.279C88.6506 59.4423 89.3282 58.7632 90.1664 58.7632C91.0047 58.7632 91.6822 59.4423 91.6822 60.279V64.8264C91.6822 65.6631 91.0047 66.3422 90.1664 66.3422Z" fill="#C14CB2"/>
<path d="M117.451 89.079H112.903C112.065 89.079 111.388 88.4 111.388 87.5632C111.388 86.7265 112.065 86.0475 112.903 86.0475H117.451C118.289 86.0475 118.967 86.7265 118.967 87.5632C118.967 88.4 118.289 89.079 117.451 89.079Z" fill="#C14CB2"/>
<path d="M79.2361 70.8895H62.8822C62.044 70.8895 61.3665 70.2105 61.3665 69.3737C61.3665 68.537 62.044 67.858 62.8822 67.858H79.2361C80.0743 67.858 80.7519 68.537 80.7519 69.3737C80.7519 70.2105 80.0743 70.8895 79.2361 70.8895Z" fill="#C14CB2"/>
<path d="M79.2361 107.268H62.8822C62.044 107.268 61.3665 106.589 61.3665 105.753C61.3665 104.916 62.044 104.237 62.8822 104.237H79.2361C80.0743 104.237 80.7519 104.916 80.7519 105.753C80.7519 106.589 80.0743 107.268 79.2361 107.268Z" fill="#C14CB2"/>
<path d="M90.0725 116.334C85.6297 116.334 81.1414 115.311 76.973 113.163C76.2288 112.78 75.9362 111.866 76.3197 111.122C76.7032 110.377 77.6187 110.085 78.3615 110.468C90.2513 116.595 105.062 112.49 112.08 101.124C119.118 89.7233 116.173 74.6275 105.376 66.756C97.5559 61.0567 86.9515 60.2321 78.3615 64.6567C77.6187 65.0402 76.7032 64.7491 76.3197 64.0034C75.9362 63.2591 76.2273 62.3451 76.973 61.9616C86.5725 57.014 98.4199 57.9341 107.161 64.305C119.23 73.1026 122.524 89.9749 114.659 102.715C109.276 111.437 99.7887 116.334 90.0725 116.334Z" fill="#C14CB2"/>
</svg>
