<svg width="14" height="14" viewBox="0 0 14 14" fill="none" xmlns="http://www.w3.org/2000/svg">
<g clip-path="url(#clip0_252_103)">
<path d="M2.25 5.84902C2.77896 5.73078 3.41465 5.61126 4.1289 5.51988V4.35031C4.1289 2.98769 5.23747 1.87912 6.60009 1.87912C7.96271 1.87912 9.07128 2.98769 9.07128 4.35031V5.51988C9.78553 5.61126 10.4212 5.73078 10.9502 5.84902V4.35031C10.9502 1.95169 8.99874 0.000244141 6.60009 0.000244141C4.20144 0.000244141 2.25 1.95169 2.25 4.35033V5.84902Z" fill="#0C0C0C" fill-opacity="0.6"/>
<path d="M6.60015 8.73267C6.31769 8.73267 6.08789 8.96246 6.08789 9.24492C6.08789 9.52741 6.31769 9.75721 6.60015 9.75721C6.88261 9.75721 7.11241 9.52741 7.11241 9.24492C7.11243 8.96246 6.88261 8.73267 6.60015 8.73267Z" fill="#0C0C0C" fill-opacity="0.6"/>
<path d="M6.60007 6.17993C4.02204 6.17993 1.87446 6.76427 1.13867 6.99089V13.1895C1.87559 13.4159 4.02781 14.0007 6.60007 14.0007C9.17809 14.0007 11.3257 13.4163 12.0614 13.1897V6.99111C11.3245 6.76465 9.17235 6.17993 6.60007 6.17993ZM7.01022 10.5123V11.8584H6.18991V10.5123C5.65526 10.3389 5.2675 9.83631 5.2675 9.24459C5.2675 8.50981 5.86529 7.91202 6.60007 7.91202C7.33485 7.91202 7.93264 8.50981 7.93264 9.24459C7.93266 9.83631 7.5449 10.3389 7.01022 10.5123Z" fill="#0C0C0C" fill-opacity="0.6"/>
</g>
<defs>
<clipPath id="clip0_252_103">
<rect width="14" height="14" fill="white" transform="translate(0 0.000244141)"/>
</clipPath>
</defs>
</svg>
