<svg width="50" height="50" viewBox="0 0 50 50" fill="none" xmlns="http://www.w3.org/2000/svg">
<circle cx="25" cy="25" r="25" fill="#C14CB2"/>
<path d="M15.9091 24C15.3568 24 14.9091 24.4477 14.9091 25C14.9091 25.5523 15.3568 26 15.9091 26V24ZM34.798 25.7071C35.1886 25.3166 35.1886 24.6834 34.798 24.2929L28.4341 17.9289C28.0436 17.5384 27.4104 17.5384 27.0199 17.9289C26.6293 18.3195 26.6293 18.9526 27.0199 19.3431L32.6767 25L27.0199 30.6569C26.6293 31.0474 26.6293 31.6805 27.0199 32.0711C27.4104 32.4616 28.0436 32.4616 28.4341 32.0711L34.798 25.7071ZM15.9091 26H34.0909V24H15.9091V26Z" fill="white"/>
</svg>
