<svg width="50" height="50" viewBox="0 0 50 50" fill="none" xmlns="http://www.w3.org/2000/svg">
<circle cx="25" cy="25" r="25" transform="matrix(-1 0 0 1 50 0)" fill="#33144E"/>
<path d="M34.0908 24C34.6431 24 35.0908 24.4477 35.0908 25C35.0908 25.5523 34.6431 26 34.0908 26V24ZM15.2019 25.7071C14.8114 25.3166 14.8114 24.6834 15.2019 24.2929L21.5659 17.9289C21.9564 17.5384 22.5895 17.5384 22.9801 17.9289C23.3706 18.3195 23.3706 18.9526 22.9801 19.3431L17.3232 25L22.9801 30.6569C23.3706 31.0474 23.3706 31.6805 22.9801 32.0711C22.5895 32.4616 21.9564 32.4616 21.5659 32.0711L15.2019 25.7071ZM34.0908 26H15.909V24H34.0908V26Z" fill="white"/>
</svg>
