<svg width="41" height="40" viewBox="0 0 41 40" fill="#0c0c0c" xmlns="http://www.w3.org/2000/svg">
<path d="M26.7351 9.10762C26.7351 5.90762 24.1505 3.28198 20.9095 3.28198C17.6685 3.28198 15.0839 5.8666 15.0839 9.10762C15.0839 12.3076 17.6685 14.9333 20.9095 14.9333C24.1095 14.9333 26.7351 12.3076 26.7351 9.10762ZM20.9095 13.4974C18.489 13.4974 16.5198 11.5281 16.5198 9.10762C16.5198 6.68711 18.489 4.71788 20.9095 4.71788C23.33 4.71788 25.2992 6.68711 25.2992 9.10762C25.2992 11.5281 23.33 13.4974 20.9095 13.4974Z" fill="#0c0c0c"/>
<path d="M38.9608 33.8051L35.5967 17.641C35.1044 15.2615 33.0121 13.5385 30.5506 13.5385H28.8275C29.607 12.1846 30.0172 10.6667 29.9762 9.10769C29.9762 4.10256 25.9147 0 20.8685 0C15.8224 0 11.7608 4.06154 11.7608 9.10769C11.7608 10.6667 12.1711 12.1846 12.9095 13.5385H11.1865C8.76594 13.5385 6.63261 15.2615 6.1403 17.641L2.85825 33.8051C2.28389 36.5949 4.04799 39.3026 6.83773 39.8769C7.16594 39.959 7.53517 40 7.9044 40H33.9147C36.7454 40 39.0839 37.7026 39.0839 34.8308C39.0839 34.5026 39.0429 34.1744 38.9608 33.8051ZM36.7864 37.2103C36.089 38.0718 35.0223 38.5641 33.9147 38.5641H7.9044C5.85312 38.5641 4.17107 36.8821 4.17107 34.8308C4.17107 34.5846 4.21209 34.3385 4.25312 34.0923L7.61722 17.9692C7.98645 16.2462 9.5044 15.0154 11.2685 15.0154H14.3454C14.7557 15.0154 15.0429 14.6872 15.0429 14.2769C15.0429 14.1128 15.0018 13.9487 14.8788 13.8256C13.8121 12.4718 13.2377 10.8308 13.2377 9.10769C13.2377 4.88205 16.6839 1.4359 20.9095 1.4359C25.1352 1.4359 28.5813 4.88205 28.5813 9.10769C28.5813 10.8308 28.007 12.4718 26.9403 13.8256C26.6941 14.1538 26.7352 14.6051 27.0634 14.8513C27.1865 14.9333 27.3506 15.0154 27.5147 15.0154H30.5916C32.3557 15.0154 33.8736 16.2462 34.2429 17.9692L37.607 34.1333C37.8121 35.2 37.5249 36.3487 36.7864 37.2103Z" fill="#0c0c0c"/>
<path d="M19.8428 23.5489C20.089 23.2617 20.089 22.8104 19.8018 22.5232C19.5146 22.2361 19.0633 22.2771 18.7762 22.5643L15.7403 25.9694C15.6172 26.1335 15.4121 26.2156 15.2069 26.2156H14.0992V23.0566C14.0992 22.6463 13.771 22.3181 13.3608 22.3181C12.9505 22.3181 12.6223 22.6463 12.6223 23.0566V30.8104C12.6223 31.2207 12.9505 31.5489 13.3608 31.5489C13.771 31.5489 14.0992 31.2207 14.0992 30.8104V27.6514H15.2069C15.4121 27.6514 15.6172 27.7335 15.7403 27.8976L18.7762 31.3027C18.8992 31.4668 19.1044 31.5489 19.3095 31.5489C19.4736 31.5489 19.6377 31.5079 19.8018 31.3848C20.089 31.1386 20.13 30.6463 19.8428 30.3591L16.8069 26.954L19.8428 23.5489Z" fill="#0c0c0c"/>
<path d="M27.0224 26.2566H25.6686C25.2583 26.2566 24.9301 26.5848 24.9301 26.995C24.9301 27.4053 25.2583 27.7335 25.6686 27.7335H27.0224C27.4327 27.7335 27.7609 28.0617 27.7609 28.472V29.4566C27.7609 29.8668 27.4327 30.195 27.0224 30.195H23.9455C23.5352 30.195 23.207 29.8668 23.207 29.4566V24.5335C23.207 24.1232 23.5352 23.795 23.9455 23.795H28.4583C28.8686 23.795 29.1968 23.4668 29.1968 23.0566C29.1968 22.6463 28.8686 22.3181 28.4583 22.3181H23.9455C22.7557 22.3181 21.7711 23.3027 21.7711 24.4925V29.3745C21.7711 30.5643 22.7557 31.5489 23.9455 31.5489H27.0224C28.2121 31.5489 29.1968 30.5643 29.1968 29.3745V28.3899C29.1968 27.2002 28.2121 26.2566 27.0224 26.2566Z" fill="#0c0c0c"/>
</svg>
