<svg width="41" height="41" viewBox="0 0 41 41" fill="none" xmlns="http://www.w3.org/2000/svg">
<path d="M10.8667 15.6081C6.74554 22.8538 12.0073 31.914 20.3628 31.914C26.3823 31.914 31.2795 27.0167 31.2795 20.9973C31.2795 12.2996 21.565 7.12773 14.3621 11.8762C14.0548 12.0791 13.6413 11.9941 13.4385 11.6866C13.2359 11.3793 13.3208 10.9658 13.6282 10.7631C21.7113 5.43382 32.6128 11.2368 32.6128 20.9973C32.6128 27.752 27.1175 33.2473 20.3628 33.2473C10.9724 33.2473 5.09113 23.0655 9.70779 14.949C9.88988 14.629 10.2968 14.5171 10.6169 14.6991C10.937 14.8811 11.0488 15.2881 10.8667 15.6081ZM19.0295 20.9973C19.0295 21.7325 19.6276 22.3306 20.3628 22.3306C21.098 22.3306 21.6961 21.7325 21.6961 20.9973C21.6961 20.2621 21.098 19.664 20.3628 19.664C19.6276 19.664 19.0295 20.2621 19.0295 20.9973ZM39.6961 20.3306H37.682C37.3388 11.3022 30.0579 4.02131 21.0295 3.67806V1.66398C21.0295 1.29581 20.731 0.997314 20.3628 0.997314C19.9946 0.997314 19.6961 1.29581 19.6961 1.66398V3.67806C10.6677 4.02131 3.38679 11.3022 3.04354 20.3306H1.02946C0.661293 20.3306 0.362793 20.6291 0.362793 20.9973C0.362793 21.3655 0.661293 21.664 1.02946 21.664H3.04354C3.38688 30.6924 10.6677 37.9733 19.6961 38.3166V40.3307C19.6961 40.6988 19.9946 40.9973 20.3628 40.9973C20.731 40.9973 21.0295 40.6988 21.0295 40.3307V37.664C21.0295 37.2958 20.731 36.9973 20.3628 36.9973C11.5404 36.9973 4.36279 29.8197 4.36279 20.9973C4.36279 12.1749 11.5404 4.99731 20.3628 4.99731C29.1852 4.99731 36.3628 12.1749 36.3628 20.9973C36.3628 27.4423 32.527 33.2292 26.5905 35.7402C26.2514 35.8837 26.0927 36.2748 26.2362 36.6139C26.3796 36.9529 26.7708 37.1115 27.1099 36.9682C33.3355 34.3351 37.4282 28.376 37.6834 21.664H39.6961C40.0643 21.664 40.3628 21.3655 40.3628 20.9973C40.3628 20.6291 40.0643 20.3306 39.6961 20.3306ZM20.3628 12.8306C19.9946 12.8306 19.6961 13.1291 19.6961 13.4973V14.6468C16.7065 14.9584 14.3239 17.3411 14.0123 20.3306H12.8628C12.4946 20.3306 12.1961 20.6291 12.1961 20.9973C12.1961 21.3655 12.4946 21.664 12.8628 21.664H14.0123C14.3239 24.6536 16.7065 27.0362 19.6961 27.3478V28.4973C19.6961 28.8655 19.9946 29.164 20.3628 29.164C20.731 29.164 21.0295 28.8655 21.0295 28.4973V27.3477C22.6956 27.1746 24.2262 26.3566 25.3028 25.0436C25.5362 24.7588 25.4946 24.3388 25.21 24.1053C24.9253 23.872 24.5052 23.9135 24.2717 24.1981C23.4498 25.2006 22.2935 25.837 21.0295 26.0039V24.9348C21.0295 24.5666 20.731 24.2681 20.3628 24.2681C19.9946 24.2681 19.6961 24.5666 19.6961 24.9348V26.0041C17.4429 25.7055 15.6546 23.9172 15.356 21.664H16.4253C16.7935 21.664 17.092 21.3655 17.092 20.9973C17.092 20.6291 16.7935 20.3306 16.4253 20.3306H15.356C15.6546 18.0774 17.4429 16.2891 19.6961 15.9906V17.0598C19.6961 17.428 19.9946 17.7265 20.3628 17.7265C20.731 17.7265 21.0295 17.428 21.0295 17.0598V15.9906C23.2827 16.2891 25.071 18.0774 25.3695 20.3306H24.3003C23.9321 20.3306 23.6336 20.6291 23.6336 20.9973C23.6336 21.3655 23.9321 21.664 24.3003 21.664H27.8628C28.231 21.664 28.5295 21.3655 28.5295 20.9973C28.5295 20.6291 28.231 20.3306 27.8628 20.3306H26.7133C26.4017 17.3411 24.019 14.9584 21.0295 14.6468V13.4973C21.0295 13.1291 20.731 12.8306 20.3628 12.8306Z" fill="#0c0c0c"/>
</svg>
