<svg width="41" height="40" viewBox="0 0 41 40" fill="none" xmlns="http://www.w3.org/2000/svg">
<g clip-path="url(#clip0_196_89)">
<path d="M37.3733 0H2.70656C1.23382 0 0.039917 1.19391 0.039917 2.66664V9.33328C0.039917 10.8061 1.23382 12 2.70656 12H37.3732C38.8459 12 40.0398 10.8061 40.0398 9.33336V2.66664C40.0399 1.19391 38.846 0 37.3733 0ZM38.7066 9.33336C38.7066 10.0698 38.1096 10.6667 37.3732 10.6667H2.70656C1.97015 10.6667 1.3732 10.0698 1.3732 9.33336V2.66664C1.3732 1.93023 1.97015 1.33328 2.70656 1.33328H37.3732C38.1096 1.33328 38.7066 1.93023 38.7066 2.66664V9.33336Z" fill="#0c0c0c"/>
<path d="M37.3733 28H2.70656C1.23382 28 0.039917 29.1939 0.039917 30.6666V37.3333C0.039917 38.8061 1.23382 40 2.70656 40H37.3732C38.846 40 40.0399 38.8061 40.0399 37.3334V30.6667C40.0399 29.1939 38.846 28 37.3733 28ZM38.7066 37.3334C38.7066 38.0698 38.1096 38.6667 37.3732 38.6667H2.70656C1.97015 38.6667 1.3732 38.0698 1.3732 37.3334V30.6667C1.3732 29.9303 1.97015 29.3334 2.70656 29.3334H37.3732C38.1096 29.3334 38.7066 29.9303 38.7066 30.6667V37.3334Z" fill="#0c0c0c"/>
<path fill-rule="evenodd" clip-rule="evenodd" d="M19.1781 24.1953C18.9165 23.9427 18.5006 23.9462 18.2435 24.2034C17.9864 24.4606 17.9828 24.8764 18.2354 25.138L19.5688 26.4713C19.8291 26.7316 20.2511 26.7316 20.5114 26.4713L21.8448 25.138C22.0974 24.8764 22.0939 24.4605 21.8367 24.2034C21.5795 23.9462 21.1637 23.9427 20.9021 24.1953L20.7068 24.3906V20.6666H21.3735C21.7417 20.6666 22.0401 20.3681 22.0401 20C22.0401 19.6318 21.7417 19.3334 21.3735 19.3334H20.7068V15.6094L20.9021 15.8047C21.1637 16.0573 21.5796 16.0537 21.8367 15.7966C22.0939 15.5394 22.0974 15.1236 21.8448 14.862L20.5114 13.5287C20.2511 13.2684 19.8291 13.2684 19.5688 13.5287L18.2354 14.862C17.9828 15.1236 17.9864 15.5395 18.2435 15.7966C18.5007 16.0537 18.9165 16.0573 19.1781 15.8047L19.3734 15.6094V19.3334H18.7067C18.3385 19.3334 18.0401 19.6319 18.0401 20C18.0401 20.3682 18.3386 20.6666 18.7067 20.6666H19.3734V24.3906L19.1781 24.1953Z" fill="#0c0c0c"/>
<path fill-rule="evenodd" clip-rule="evenodd" d="M16.0402 20.6668C16.4084 20.6668 16.7068 20.3683 16.7068 20.0001C16.7068 19.6319 16.4083 19.3335 16.0402 19.3335H13.3736C13.0053 19.3335 12.7069 19.632 12.7069 20.0001C12.7069 20.3683 13.0054 20.6668 13.3736 20.6668H16.0402Z" fill="#0c0c0c"/>
<path fill-rule="evenodd" clip-rule="evenodd" d="M10.7069 20.6668C11.0751 20.6668 11.3736 20.3683 11.3736 20.0001C11.3736 19.6319 11.0751 19.3335 10.7069 19.3335H8.0403C7.6721 19.3335 7.37366 19.632 7.37366 20.0001C7.37366 20.3683 7.67217 20.6668 8.0403 20.6668H10.7069Z" fill="#0c0c0c"/>
<path fill-rule="evenodd" clip-rule="evenodd" d="M5.37315 20.6668C5.74136 20.6668 6.0398 20.3683 6.0398 20.0001C6.0398 19.6319 5.74136 19.3335 5.37315 19.3335H2.70644C2.33823 19.3335 2.03979 19.632 2.03979 20.0001C2.03979 20.3683 2.33831 20.6668 2.70644 20.6668H5.37315Z" fill="#0c0c0c"/>
<path fill-rule="evenodd" clip-rule="evenodd" d="M37.3733 20.6668C37.7415 20.6668 38.04 20.3683 38.04 20.0001C38.04 19.6319 37.7415 19.3335 37.3733 19.3335H34.7067C34.3385 19.3335 34.04 19.632 34.04 20.0001C34.04 20.3683 34.3386 20.6668 34.7067 20.6668H37.3733Z" fill="#0c0c0c"/>
<path fill-rule="evenodd" clip-rule="evenodd" d="M32.0401 20.6668C32.4083 20.6668 32.7067 20.3683 32.7067 20.0001C32.7067 19.6319 32.4082 19.3335 32.0401 19.3335H29.3734C29.0052 19.3335 28.7068 19.632 28.7068 20.0001C28.7068 20.3683 29.0053 20.6668 29.3734 20.6668H32.0401Z" fill="#0c0c0c"/>
<path fill-rule="evenodd" clip-rule="evenodd" d="M26.7068 20.6668C27.075 20.6668 27.3735 20.3683 27.3735 20.0001C27.3735 19.6319 27.0749 19.3335 26.7068 19.3335H24.0402C23.672 19.3335 23.3735 19.632 23.3735 20.0001C23.3735 20.3683 23.672 20.6668 24.0402 20.6668H26.7068Z" fill="#0c0c0c"/>
</g>
<defs>
<clipPath id="clip0_196_89">
<rect width="40" height="40" fill="white" transform="translate(0.039917)"/>
</clipPath>
</defs>
</svg>
